<svg width="250" height="250" viewBox="0 0 250 250" fill="none" xmlns="http://www.w3.org/2000/svg">
<circle cx="125" cy="125" r="122.5" fill="white" stroke="url(#paint0_linear_2154_306)" stroke-width="5"/>
<path d="M55.075 166V85.5H66.575V155.995H110.16V166H55.075ZM158.236 166.92C152.103 166.92 146.391 165.885 141.101 163.815C135.888 161.745 131.365 158.87 127.531 155.19C123.698 151.433 120.708 147.063 118.561 142.08C116.415 137.097 115.341 131.653 115.341 125.75C115.341 119.847 116.415 114.403 118.561 109.42C120.708 104.437 123.698 100.105 127.531 96.425C131.365 92.6683 135.888 89.755 141.101 87.685C146.315 85.615 152.026 84.58 158.236 84.58C164.37 84.58 170.005 85.615 175.141 87.685C180.355 89.6783 184.878 92.5533 188.711 96.31C192.621 99.99 195.611 104.322 197.681 109.305C199.828 114.288 200.901 119.77 200.901 125.75C200.901 131.73 199.828 137.212 197.681 142.195C195.611 147.178 192.621 151.548 188.711 155.305C184.878 158.985 180.355 161.86 175.141 163.93C170.005 165.923 164.37 166.92 158.236 166.92ZM158.236 156.685C162.683 156.685 166.785 155.918 170.541 154.385C174.375 152.852 177.671 150.705 180.431 147.945C183.268 145.108 185.453 141.812 186.986 138.055C188.596 134.298 189.401 130.197 189.401 125.75C189.401 121.303 188.596 117.202 186.986 113.445C185.453 109.688 183.268 106.43 180.431 103.67C177.671 100.833 174.375 98.6483 170.541 97.115C166.785 95.5817 162.683 94.815 158.236 94.815C153.713 94.815 149.535 95.5817 145.701 97.115C141.945 98.6483 138.648 100.833 135.811 103.67C132.975 106.43 130.751 109.688 129.141 113.445C127.608 117.202 126.841 121.303 126.841 125.75C126.841 130.197 127.608 134.298 129.141 138.055C130.751 141.812 132.975 145.108 135.811 147.945C138.648 150.705 141.945 152.852 145.701 154.385C149.535 155.918 153.713 156.685 158.236 156.685ZM217.267 166.69C215.121 166.69 213.281 165.962 211.747 164.505C210.214 162.972 209.447 161.055 209.447 158.755C209.447 156.455 210.214 154.577 211.747 153.12C213.281 151.663 215.121 150.935 217.267 150.935C219.337 150.935 221.101 151.663 222.557 153.12C224.091 154.577 224.857 156.455 224.857 158.755C224.857 161.055 224.091 162.972 222.557 164.505C221.101 165.962 219.337 166.69 217.267 166.69Z" fill="url(#paint1_linear_2154_306)"/>
<defs>
<linearGradient id="paint0_linear_2154_306" x1="249.379" y1="1.72248e-05" x2="0.621369" y2="250" gradientUnits="userSpaceOnUse">
<stop stop-color="#30BFC7"/>
<stop offset="0.495" stop-color="#316699"/>
<stop offset="1" stop-color="#311A70"/>
</linearGradient>
<linearGradient id="paint1_linear_2154_306" x1="216.652" y1="55" x2="79.1085" y2="213.843" gradientUnits="userSpaceOnUse">
<stop stop-color="#30BFC7"/>
<stop offset="0.5" stop-color="#316699"/>
<stop offset="1" stop-color="#311A70"/>
</linearGradient>
</defs>
</svg>
